<svg width="26" height="25" viewBox="0 0 26 25" fill="none" xmlns="http://www.w3.org/2000/svg">
<path d="M25.392 24.2579C23.6312 24.2579 21.8703 24.2579 20.1095 24.2579C20.1095 24.0391 20.1095 24.0391 20.1095 23.8203C20.1095 21.1947 20.1095 18.5691 20.1095 15.7247C20.1095 15.0683 20.1095 14.4119 19.8894 13.7555C19.4491 12.0051 17.4682 11.3487 15.9274 12.2239C15.047 12.6615 14.6068 13.5367 14.6068 14.4119C14.6068 16.1623 14.6068 17.9127 14.6068 19.8819C14.6068 21.1947 14.6068 22.5075 14.6068 24.0391C12.8459 24.0391 11.0851 24.0391 9.32422 24.0391C9.32422 18.7879 9.32422 13.3179 9.32422 8.06672C11.0851 8.06672 12.8459 8.06672 14.6068 8.06672C14.6068 8.72312 14.6068 9.3795 14.6068 10.0359C14.6068 10.0359 14.6068 10.0359 14.8269 10.0359V9.81709C16.1476 7.84789 18.1285 7.19149 20.3296 7.62909C23.4111 8.06669 25.1719 10.0359 25.6122 13.0991C25.6122 13.5367 25.6122 13.9743 25.8323 14.6307C25.8323 17.6939 25.8323 20.7571 25.8323 23.8203C25.3921 24.0391 25.392 24.0391 25.392 24.2579Z" fill="url(#paint0_linear_182_41857)"/>
<path d="M0.742188 7.65625C0.962295 7.65625 1.18244 7.65625 1.40255 7.65625C2.9433 7.65625 4.26395 7.65625 5.8047 7.65625C6.02481 7.65625 6.24487 7.65626 6.24487 7.87506C6.24487 13.1263 6.24487 18.3774 6.24487 23.4098C6.24487 23.4098 6.24487 23.4098 6.24487 23.6286C4.48401 23.6286 2.72317 23.6286 0.962308 23.6286C0.742201 18.5962 0.742188 13.1262 0.742188 7.65625Z" fill="url(#paint1_linear_182_41857)"/>
<path d="M3.3871 0C5.58817 0 6.90879 1.75036 6.24847 3.71956C5.80825 5.03236 4.26755 5.6888 2.7268 5.47C0.965941 5.2512 -0.134597 3.50078 0.525726 1.96919C0.965941 0.656386 2.06645 0 3.3871 0Z" fill="url(#paint2_linear_182_41857)"/>
<defs>
<linearGradient id="paint0_linear_182_41857" x1="17.5783" y1="7.49951" x2="17.5783" y2="24.2579" gradientUnits="userSpaceOnUse">
<stop stop-color="#1B2B5E"/>
<stop offset="1" stop-color="#2C4B9B"/>
</linearGradient>
<linearGradient id="paint1_linear_182_41857" x1="3.49353" y1="7.65625" x2="3.49353" y2="23.6286" gradientUnits="userSpaceOnUse">
<stop stop-color="#1B2B5E"/>
<stop offset="1" stop-color="#2C4B9B"/>
</linearGradient>
<linearGradient id="paint2_linear_182_41857" x1="3.37553" y1="0" x2="3.37553" y2="5.51146" gradientUnits="userSpaceOnUse">
<stop stop-color="#1B2B5E"/>
<stop offset="1" stop-color="#2C4B9B"/>
</linearGradient>
</defs>
</svg>
