<svg width="25" height="24" viewBox="0 0 25 24" fill="none" xmlns="http://www.w3.org/2000/svg">
<path d="M13.4052 0.498817C15.166 0.498817 16.7068 0.498817 18.4676 0.498817C22.2094 0.717617 24.4106 2.90558 24.6307 6.40637C24.8508 10.126 24.8508 14.0644 24.6307 17.784C24.4106 21.2848 22.2095 23.6916 17.8073 23.9104C14.0655 23.9104 10.5438 23.9104 6.80195 23.9104C3.50034 23.6916 1.29925 21.5036 1.07914 18.2216C0.859036 14.2832 0.859036 10.3448 1.07914 6.40637C1.29925 2.68678 3.94055 0.498817 7.90249 0.498817C9.66335 0.280017 11.4242 0.280017 13.4052 0.498817ZM12.9649 22.16C14.7258 22.16 16.7068 22.16 18.4676 22.16C19.7883 22.16 21.1089 21.7224 21.9894 20.4096C22.4296 19.7532 22.8698 18.878 22.8698 18.2216C22.8698 14.2832 23.0899 10.5636 22.8698 6.62519C22.6497 3.99959 20.8889 2.46799 18.2476 2.24919C14.7258 2.24919 10.984 2.24919 7.46225 2.24919C6.36171 2.24919 5.26119 2.46799 4.38076 3.34319C3.28022 4.43719 3.0601 5.75001 3.0601 7.06281C3.0601 10.5636 3.0601 13.8456 3.0601 17.3464C3.0601 19.972 4.82097 21.9412 7.68237 21.9412C9.22312 22.16 10.984 22.16 12.9649 22.16Z" fill="url(#paint0_linear_125_5196)"/>
<path d="M12.9647 22.1603C11.2039 22.1603 9.22291 22.1603 7.46205 22.1603C4.82076 21.9415 3.05995 20.191 2.83984 17.5654C2.83984 14.0646 2.83984 10.7827 2.83984 7.28189C2.83984 5.96909 3.28001 4.43746 4.16044 3.56226C5.04087 2.68706 6.14146 2.46826 7.24199 2.46826C10.7637 2.46826 14.5055 2.46826 18.0273 2.46826C20.6685 2.46826 22.4294 4.21866 22.6495 6.84426C22.8696 10.7827 22.6495 14.5022 22.6495 18.4406C22.6495 19.3158 22.2093 19.9722 21.769 20.6286C21.1087 21.9414 19.7881 22.3791 18.2474 22.3791C16.4865 22.1603 14.7256 21.9415 12.9647 22.1603ZM6.80175 12.0954C6.80175 15.3774 9.44307 18.0031 12.7447 18.0031C16.0463 18.0031 18.6875 15.3774 18.6875 12.0954C18.6875 8.81345 16.0463 6.18789 12.7447 6.18789C9.44307 6.18789 6.80175 8.81345 6.80175 12.0954ZM18.9077 7.06307C19.568 7.06307 20.2283 6.40666 20.2283 5.75026C20.2283 5.09386 19.7881 4.43745 18.9077 4.43745C18.2473 4.43745 17.587 5.09386 17.587 5.75026C17.8071 6.40666 18.2473 7.06307 18.9077 7.06307Z" fill="white"/>
<path d="M6.79688 12.0965C6.79688 8.81452 9.43819 6.18896 12.7398 6.18896C16.0414 6.18896 18.6827 8.81452 18.6827 12.0965C18.6827 15.3785 16.0414 18.0041 12.7398 18.0041C9.43819 18.0041 6.79688 15.3785 6.79688 12.0965ZM8.55771 12.0965C8.55771 14.5033 10.3186 16.2537 12.7398 16.2537C15.161 16.2537 16.9218 14.2845 16.9218 12.0965C16.9218 9.68972 14.9409 7.72054 12.7398 7.93934C10.3186 7.93934 8.55771 9.68972 8.55771 12.0965Z" fill="url(#paint1_linear_125_5196)"/>
<path d="M18.907 7.06286C18.2465 7.06286 17.5859 6.40627 17.5859 5.74969C17.5859 5.09312 18.2465 4.43652 18.907 4.43652C19.5675 4.43652 20.228 5.09312 20.228 5.74969C20.228 6.40627 19.7876 7.06286 18.907 7.06286Z" fill="url(#paint2_linear_125_5196)"/>
<path d="M8.5625 12.095C8.5625 9.68819 10.3234 7.93779 12.7446 7.71899C15.1658 7.71899 16.9266 9.68818 16.9266 11.8762C16.9266 14.283 14.9457 16.2522 12.7446 16.0334C10.3234 16.471 8.5625 14.5018 8.5625 12.095Z" fill="white"/>
<defs>
<linearGradient id="paint0_linear_125_5196" x1="12.8549" y1="0.334717" x2="12.8549" y2="23.9104" gradientUnits="userSpaceOnUse">
<stop stop-color="#1B2B5E"/>
<stop offset="1" stop-color="#2C4B9B"/>
</linearGradient>
<linearGradient id="paint1_linear_125_5196" x1="12.7398" y1="6.18896" x2="12.7398" y2="18.0041" gradientUnits="userSpaceOnUse">
<stop stop-color="#1B2B5E"/>
<stop offset="1" stop-color="#2C4B9B"/>
</linearGradient>
<linearGradient id="paint2_linear_125_5196" x1="18.907" y1="4.43652" x2="18.907" y2="7.06286" gradientUnits="userSpaceOnUse">
<stop stop-color="#1B2B5E"/>
<stop offset="1" stop-color="#2C4B9B"/>
</linearGradient>
</defs>
</svg>
