<svg width="24" height="24" viewBox="0 0 24 24" fill="none" xmlns="http://www.w3.org/2000/svg">
<path fill-rule="evenodd" clip-rule="evenodd" d="M16.5549 22.133C15.1149 22.08 11.0339 21.516 6.75993 17.243C2.48693 12.969 1.92393 8.88897 1.86993 7.44797C1.78993 5.25197 3.47193 3.11897 5.41493 2.28597C5.64891 2.18494 5.90513 2.14647 6.15846 2.17435C6.41179 2.20222 6.65352 2.29548 6.85993 2.44497C8.45993 3.61097 9.56393 5.37497 10.5119 6.76197C10.7205 7.0667 10.8097 7.43752 10.7625 7.80377C10.7153 8.17002 10.535 8.5061 10.2559 8.74797L8.30493 10.197C8.21067 10.265 8.14432 10.365 8.11821 10.4783C8.09209 10.5916 8.10798 10.7105 8.16293 10.813C8.60493 11.616 9.39093 12.812 10.2909 13.712C11.1909 14.612 12.4439 15.45 13.3029 15.942C13.4106 16.0024 13.5374 16.0193 13.6572 15.9892C13.777 15.9591 13.8807 15.8842 13.9469 15.78L15.2169 13.847C15.4504 13.5368 15.7949 13.329 16.1781 13.2672C16.5614 13.2053 16.9537 13.2941 17.2729 13.515C18.6799 14.489 20.3219 15.574 21.5239 17.113C21.6856 17.3209 21.7884 17.5684 21.8216 17.8296C21.8549 18.0908 21.8173 18.3562 21.7129 18.598C20.8759 20.551 18.7579 22.214 16.5549 22.133Z" fill="#1B2B5E"/>
</svg>
