<svg width="21" height="22" viewBox="0 0 21 22" fill="none" xmlns="http://www.w3.org/2000/svg">
<path d="M0.296875 21.5973C2.93817 18.5341 5.5794 15.4708 8.22069 12.4076C5.5794 8.46925 2.93817 4.74968 0.296875 0.811279C0.516983 0.811279 0.516942 0.811279 0.73705 0.811279C2.49791 0.811279 4.25877 0.811279 6.23974 0.811279C6.45985 0.811279 6.67998 0.811226 6.67998 1.03003C8.22073 3.43682 9.98155 5.84366 11.5223 8.25046C11.5223 8.25046 11.5223 8.46928 11.7424 8.46928C12.1826 7.81288 12.843 7.15642 13.2832 6.50002C14.824 4.74962 16.5848 2.78043 18.1255 1.03003C18.3456 0.811226 18.3457 0.811279 18.5658 0.811279C19.006 0.811279 19.4462 0.811279 20.1066 0.811279L19.8864 1.03003C17.4652 3.87442 15.044 6.50006 12.6228 9.34446C12.4027 9.56326 12.4027 9.56322 12.6228 9.78202C15.2641 13.5016 17.9054 17.44 20.5467 21.1596C20.5467 21.3784 20.7668 21.3785 20.7668 21.5973C20.5467 21.5973 20.5467 21.5973 20.3266 21.5973C18.5657 21.5973 16.5848 21.5973 14.8239 21.5973C14.6038 21.5973 14.3837 21.5973 14.3837 21.3785C12.6229 18.7529 10.862 16.3461 9.10118 13.9393C9.10118 13.9393 8.88105 13.7204 8.88105 13.5016C8.88105 13.5016 8.88104 13.7205 8.66093 13.7205C6.45986 16.3461 4.25878 18.7529 2.05771 21.3785C1.8376 21.5973 1.83757 21.5973 1.61747 21.5973C1.17725 21.5973 0.73709 21.5973 0.296875 21.5973ZM18.3457 20.2845C18.3457 20.0657 18.1255 20.0656 18.1255 20.0656C16.5848 17.8776 15.044 15.6897 13.7234 13.7205C11.0821 10.0009 8.44085 6.28124 5.79956 2.34284C5.79956 2.34284 5.57943 2.12403 5.35932 2.12403C4.91911 2.12403 4.25876 2.12403 3.81854 2.12403C3.59843 2.12403 3.15823 2.12403 2.93813 2.12403C2.93813 2.34283 3.15825 2.34284 3.15825 2.34284C7.12018 8.03164 11.0821 13.7205 15.044 19.4093C15.4843 20.0657 15.9245 20.2845 16.5848 20.2845C17.025 20.2845 17.6853 20.2845 18.3457 20.2845Z" fill="url(#paint0_linear_125_5210)"/>
<path d="M18.345 20.283C17.6847 20.283 17.2445 20.283 16.5842 20.283C15.9239 20.283 15.4836 20.0642 15.0434 19.4078C11.0815 13.719 7.11956 8.03017 3.15762 2.34137L2.9375 2.12256C3.37772 2.12256 3.59781 2.12256 3.81792 2.12256C4.25813 2.12256 4.91848 2.12256 5.3587 2.12256C5.5788 2.12256 5.57883 2.12257 5.79894 2.34137C8.44023 6.06097 11.0815 9.7806 13.7228 13.719C15.2635 15.907 16.8043 18.095 18.1249 20.0642C18.1249 20.0642 18.1249 20.0642 18.345 20.283Z" fill="white"/>
<defs>
<linearGradient id="paint0_linear_125_5210" x1="10.5319" y1="0.811279" x2="10.5319" y2="21.5973" gradientUnits="userSpaceOnUse">
<stop stop-color="#1B2B5E"/>
<stop offset="1" stop-color="#2C4B9B"/>
</linearGradient>
</defs>
</svg>
