<svg width="23" height="17" viewBox="0 0 23 17" fill="none" xmlns="http://www.w3.org/2000/svg">
<path d="M22.9158 6.78108C22.9158 7.65628 22.9158 8.75031 22.9158 9.62551V9.84433C22.9158 11.1571 22.6956 12.2511 22.6956 13.5639C22.6956 14.6579 21.5951 15.5331 20.4946 15.7519C18.7337 15.9707 16.7527 16.1895 14.9919 16.1895C12.5707 16.4083 9.92943 16.4083 7.50824 16.1895C5.96749 16.1895 4.42673 15.9707 2.88597 15.7519C1.78544 15.7519 0.905005 14.6579 0.684898 13.5639C0.46479 12.2511 0.464844 11.1571 0.464844 9.84433V9.62551C0.464844 8.75031 0.464844 7.65628 0.464844 6.78108V6.56233C0.464844 5.24953 0.684898 4.1555 0.684898 2.8427C0.684898 1.7487 1.78544 0.873505 2.88597 0.654705C4.64683 0.435905 6.6278 0.217078 8.38866 0.217078C10.8098 -0.00172146 13.4512 -0.00172146 15.8724 0.217078C17.4131 0.217078 18.9538 0.435905 20.4946 0.654705C21.5951 0.654705 22.4755 1.7487 22.6956 2.8427C22.9158 4.1555 22.9158 5.24953 22.9158 6.56233C22.9158 6.56233 22.9158 6.56228 22.9158 6.78108ZM9.70932 4.37433C9.70932 6.78113 9.70932 9.40671 9.70932 11.8135C11.6903 10.5007 13.4512 9.40669 15.4321 8.09389C13.4512 6.78109 11.6903 5.68713 9.70932 4.37433Z" fill="url(#paint0_linear_125_5204)"/>
<path d="M9.71094 4.37256C11.6919 5.68536 13.4528 6.77932 15.4337 8.09212C13.4528 9.40492 11.6919 10.4989 9.71094 11.8117C9.71094 9.40494 9.71094 6.77936 9.71094 4.37256Z" fill="white"/>
<defs>
<linearGradient id="paint0_linear_125_5204" x1="11.6903" y1="0.0529785" x2="11.6903" y2="16.3536" gradientUnits="userSpaceOnUse">
<stop stop-color="#1B2B5E"/>
<stop offset="1" stop-color="#2C4B9B"/>
</linearGradient>
</defs>
</svg>
