<svg width="36" height="36" viewBox="0 0 36 36" fill="none" xmlns="http://www.w3.org/2000/svg">
<path d="M8.08618 26.8106L11.8195 33.3439C11.9751 33.7328 12.2667 33.9856 12.6945 34.1022C13.1223 34.2189 13.5306 34.1995 13.9195 34.0439L16.1362 33.1106C16.6029 32.8772 16.914 32.5272 17.0695 32.0606C17.2251 31.5939 17.1862 31.1661 16.9529 30.7772L13.3362 24.4772C14.8917 23.7772 16.2917 23.3495 17.5362 23.1939C18.9362 22.9606 20.3362 23.0384 21.7362 23.4272C21.9695 23.9717 22.339 24.3217 22.8445 24.4772C23.3501 24.6328 23.8362 24.6134 24.3029 24.4189C24.7695 24.2245 25.1001 23.8745 25.2945 23.3689C25.489 22.8634 25.4695 22.3772 25.2362 21.9106L23.2529 17.4772C23.6417 17.0106 23.8945 16.4467 24.0112 15.7856C24.1279 15.1245 24.0501 14.4828 23.7779 13.8606C23.5056 13.2384 23.0779 12.7522 22.4945 12.4022C21.9112 12.0522 21.3084 11.8772 20.6862 11.8772L18.5862 7.44391C18.3528 6.97725 18.0029 6.64669 17.5362 6.45224C17.0695 6.2578 16.6029 6.27724 16.1362 6.51058C15.6695 6.74391 15.339 7.09391 15.1445 7.56058C14.9501 8.02724 14.9695 8.5328 15.2029 9.07725C14.4251 10.8661 13.1029 12.3439 11.2362 13.5106C10.7695 13.8217 10.3029 14.0939 9.83618 14.3272L4.11952 16.8939C3.26396 17.2828 2.66118 17.9439 2.31118 18.8772C1.96118 19.8106 1.98063 20.705 2.36952 21.5606L3.88618 24.9439C4.27507 25.7217 4.87785 26.2856 5.69452 26.6356C6.51118 26.9856 7.30841 27.0439 8.08618 26.8106ZM22.7862 14.2106C23.1751 14.9884 23.1362 15.7272 22.6695 16.4272L21.1529 12.9272C21.9306 13.0828 22.4751 13.5106 22.7862 14.2106ZM15.7862 10.2439L21.2695 22.2606C20.1028 22.0272 18.8973 21.9884 17.6529 22.1439C16.7195 22.2995 15.6695 22.5717 14.5029 22.9606L10.7695 14.9106C11.8584 14.2884 12.7529 13.6661 13.4529 13.0439C14.3862 12.1884 15.164 11.255 15.7862 10.2439ZM12.5195 24.9439L16.0195 31.2439C16.1751 31.3995 16.214 31.5745 16.1362 31.7689C16.0584 31.9634 15.9417 32.0995 15.7862 32.1772L13.5695 33.1106C13.3362 33.1884 13.1417 33.2078 12.9862 33.1689C12.8306 33.13 12.714 33.0328 12.6362 32.8772L9.01952 26.4606L12.5195 24.9439ZM22.6695 9.07725L24.7695 8.26058L27.5695 8.84391C27.8806 8.92169 28.1723 8.86336 28.4445 8.66891C28.7167 8.47447 28.8917 8.26058 28.9695 8.02724L29.6695 4.52724C29.7473 4.21613 29.7084 3.92447 29.5529 3.65224C29.3973 3.38002 29.164 3.20502 28.8528 3.12724L23.3695 1.96058C23.0584 1.8828 22.7667 1.92169 22.4945 2.07724C22.2223 2.2328 22.0473 2.46613 21.9695 2.77724L21.2695 6.27724C21.1917 6.58836 21.2306 6.88002 21.3862 7.15224C21.5417 7.42447 21.7751 7.59947 22.0862 7.67724H22.5529L22.3195 8.84391C22.3195 8.92169 22.3584 8.99947 22.4362 9.07725C22.514 9.15502 22.5917 9.15502 22.6695 9.07725ZM24.4195 3.94391C24.6529 3.78835 24.8862 3.74947 25.1195 3.82724C25.3528 3.90502 25.5473 4.02169 25.7029 4.17724V4.29391H25.8195C26.0529 4.13836 26.2862 4.08002 26.5195 4.11891C26.7529 4.1578 26.9279 4.29391 27.0445 4.52724C27.1612 4.76058 27.2001 4.99391 27.1612 5.22725C27.1223 5.46058 26.9862 5.65502 26.7529 5.81058L25.4695 6.62724C25.314 6.70502 25.1973 6.66613 25.1195 6.51058L24.1862 5.22725C24.0306 5.07169 23.9723 4.8578 24.0112 4.58558C24.0501 4.31336 24.1862 4.09947 24.4195 3.94391ZM26.6362 20.8606L26.9862 20.9772L26.6362 21.9106C26.5584 22.0661 26.5584 22.1634 26.6362 22.2022C26.714 22.2411 26.7917 22.2606 26.8695 22.2606L28.8528 21.6772L31.4195 22.4939C31.7306 22.6495 32.0029 22.6495 32.2362 22.4939C32.4695 22.3384 32.664 22.1439 32.8195 21.9106L33.8695 18.7606C33.9473 18.5272 33.9279 18.2745 33.8112 18.0022C33.6945 17.73 33.5195 17.555 33.2862 17.4772L28.3862 15.7272C28.0751 15.6495 27.8029 15.6689 27.5695 15.7856C27.3362 15.9022 27.1417 16.1161 26.9862 16.4272L25.9362 19.4606C25.8584 19.7717 25.8779 20.0634 25.9945 20.3356C26.1112 20.6078 26.3251 20.7828 26.6362 20.8606ZM28.7362 19.6939L29.3195 18.1772C29.3195 18.0995 29.3779 18.0411 29.4945 18.0022C29.6112 17.9634 29.7084 17.9828 29.7862 18.0606L30.7195 19.2272C30.7195 19.305 30.7195 19.4022 30.7195 19.5189C30.7195 19.6356 30.6417 19.6939 30.4862 19.6939L29.0862 20.0439C29.0084 20.1217 28.9306 20.1022 28.8528 19.9856C28.7751 19.8689 28.7362 19.7717 28.7362 19.6939ZM29.5529 14.4439L30.8362 13.5106H32.9362C33.1695 13.5106 33.364 13.4328 33.5195 13.2772C33.6751 13.1217 33.7529 12.9272 33.7529 12.6939V10.1272C33.7529 9.97169 33.6751 9.81613 33.5195 9.66058C33.364 9.50502 33.1695 9.42724 32.9362 9.42724H28.9695C28.7362 9.42724 28.5417 9.50502 28.3862 9.66058C28.2306 9.81613 28.1529 9.97169 28.1529 10.1272V12.6939C28.1529 12.9272 28.2306 13.1022 28.3862 13.2189C28.5417 13.3356 28.7362 13.3939 28.9695 13.3939H29.3195V14.2106C29.3195 14.2884 29.339 14.3467 29.3779 14.3856C29.4167 14.4245 29.4751 14.4439 29.5529 14.4439ZM30.1362 10.8272H32.0029C32.1584 10.8272 32.2751 10.8856 32.3529 11.0022C32.4306 11.1189 32.4695 11.2356 32.4695 11.3522C32.4695 11.4689 32.4306 11.5856 32.3529 11.7022C32.2751 11.8189 32.1584 11.8772 32.0029 11.8772H30.1362C29.9806 11.8772 29.864 11.8189 29.7862 11.7022C29.7084 11.5856 29.6695 11.4689 29.6695 11.3522C29.6695 11.2356 29.7084 11.1189 29.7862 11.0022C29.864 10.8856 29.9806 10.8272 30.1362 10.8272Z" fill="black"/>
</svg>
