<svg width="64" height="68" viewBox="0 0 64 68" fill="none" xmlns="http://www.w3.org/2000/svg">
<g clip-path="url(#clip0_1_729)">
<path d="M30.1484 -0.199219C29.5729 0.199219 29.0527 0.64193 28.5879 1.12891C28.123 1.61588 27.7135 2.16927 27.3594 2.78906C27.3151 6.86198 27.293 10.957 27.293 15.0742C27.2487 19.1914 27.2044 23.2975 27.1602 27.3926C27.1159 31.4876 27.0716 35.5716 27.0273 39.6445C27.0273 43.7617 27.0052 47.8568 26.9609 51.9297C25.2786 50.2917 23.6185 48.6536 21.9805 47.0156C20.2982 45.3333 18.638 43.6621 17 42.002C15.362 40.3418 13.7018 38.6927 12.0195 37.0547C10.3815 35.3724 8.72135 33.7122 7.03906 32.0742C5.35677 31.3659 3.9069 31.2441 2.68945 31.709C1.47201 32.1738 0.509115 33.2253 -0.199219 34.8633C-0.199219 35.306 -0.199219 35.7376 -0.199219 36.1582C-0.199219 36.5788 -0.199219 37.0104 -0.199219 37.4531C2.19141 40.0208 4.6263 42.5885 7.10547 45.1562C9.54036 47.724 12.0085 50.2695 14.5098 52.793C17.0111 55.3164 19.5234 57.8398 22.0469 60.3633C24.6146 62.8424 27.1823 65.3216 29.75 67.8008C30.3698 67.8008 31.0007 67.8008 31.6426 67.8008C32.2845 67.8008 32.9375 67.8008 33.6016 67.8008C36.125 65.3216 38.6263 62.8424 41.1055 60.3633C43.6289 57.8841 46.1413 55.4049 48.6426 52.9258C51.1439 50.4466 53.6341 47.9453 56.1133 45.4219C58.5924 42.8984 61.0495 40.375 63.4844 37.8516C63.4844 37.276 63.4844 36.7005 63.4844 36.125C63.4844 35.5495 63.4844 34.974 63.4844 34.3984C62.6432 32.9375 61.625 32.0078 60.4297 31.6094C59.2344 31.2109 57.8398 31.3659 56.2461 32.0742C54.6081 33.7122 52.9922 35.3281 51.3984 36.9219C49.7604 38.5599 48.1335 40.1868 46.5176 41.8027C44.9017 43.4186 43.2747 45.0456 41.6367 46.6836C39.9987 48.2773 38.3828 49.8932 36.7891 51.5312C36.7448 47.5469 36.7005 43.5625 36.6562 39.5781C36.612 35.5938 36.5788 31.5983 36.5566 27.5918C36.5345 23.5853 36.5013 19.5898 36.457 15.6055C36.4128 11.6211 36.3685 7.63672 36.3242 3.65234C36.1471 2.67838 35.793 1.87045 35.2617 1.22852C34.7305 0.586586 34.0221 0.11068 33.1367 -0.199219C32.6497 -0.199219 32.1517 -0.199219 31.6426 -0.199219C31.1335 -0.199219 30.6354 -0.199219 30.1484 -0.199219ZM30.5469 0.664062C31.8307 0.486977 32.8822 0.64193 33.7012 1.12891C34.5202 1.61588 35.1289 2.45703 35.5273 3.65234C35.5273 7.8138 35.5495 11.9753 35.5938 16.1367C35.638 20.2982 35.6823 24.4707 35.7266 28.6543C35.7708 32.8379 35.793 37.0104 35.793 41.1719C35.8372 45.3333 35.8815 49.4948 35.9258 53.6562C37.6523 51.9297 39.3789 50.2031 41.1055 48.4766C42.832 46.75 44.5586 45.0234 46.2852 43.2969C48.0117 41.5703 49.7383 39.8438 51.4648 38.1172C53.1914 36.3906 54.918 34.6641 56.6445 32.9375C58.8581 32.2734 60.4408 32.3509 61.3926 33.1699C62.3444 33.9889 62.6875 35.5495 62.4219 37.8516C60.0312 40.2422 57.6406 42.6549 55.25 45.0898C52.8151 47.4805 50.4023 49.8822 48.0117 52.2949C45.6211 54.7077 43.2083 57.1094 40.7734 59.5C38.3828 61.8906 35.9922 64.3034 33.6016 66.7383C33.2474 66.7826 32.9043 66.86 32.5723 66.9707C32.2402 67.0814 31.9414 67.2031 31.6758 67.3359C31.3659 67.2031 31.0449 67.0814 30.7129 66.9707C30.3809 66.86 30.0599 66.7826 29.75 66.7383C27.3594 64.3477 24.9909 61.9792 22.6445 59.6328C20.2539 57.2422 17.8743 54.8626 15.5059 52.4941C13.1374 50.1257 10.7578 47.7461 8.36719 45.3555C6.02083 43.0091 3.65234 40.6406 1.26172 38.25C0.641927 36.6562 0.597656 35.3503 1.12891 34.332C1.66016 33.3138 2.78906 32.6276 4.51562 32.2734C4.86979 32.3177 5.22396 32.3841 5.57812 32.4727C5.93229 32.5612 6.28646 32.7161 6.64062 32.9375C8.36719 34.6641 10.0938 36.4128 11.8203 38.1836C13.5469 39.9102 15.2845 41.6367 17.0332 43.3633C18.7819 45.0898 20.5417 46.8164 22.3125 48.543C24.0833 50.2695 25.832 51.974 27.5586 53.6562C27.6471 49.4062 27.7357 45.1784 27.8242 40.9727C27.9128 36.7227 27.9792 32.4727 28.0234 28.2227C28.0677 23.9727 28.112 19.7227 28.1562 15.4727C28.2005 11.2669 28.2227 7.03906 28.2227 2.78906C28.5326 2.30209 28.8867 1.88151 29.2852 1.52734C29.6836 1.17318 30.1042 0.885414 30.5469 0.664062Z" fill="white"/>
</g>
<defs>
<clipPath id="clip0_1_729">
<rect width="63.75" height="68" fill="white" transform="matrix(1 0 0 -1 0 68)"/>
</clipPath>
</defs>
</svg>
