<svg width="14" height="27" viewBox="0 0 14 27" fill="none" xmlns="http://www.w3.org/2000/svg">
<path d="M9.54902 26.2237C7.78816 26.2237 6.24744 26.2237 4.48658 26.2237C4.48658 26.0049 4.48658 25.5674 4.48658 25.3486C4.48658 21.4102 4.48658 17.4718 4.48658 13.7522C4.48658 12.6582 4.48658 12.6582 3.38604 12.6582C2.72572 12.6582 1.84527 12.6582 0.964844 12.6582C0.964844 11.3454 0.964844 10.0325 0.964844 8.71975C1.84527 8.71975 2.72573 8.71975 3.60616 8.71975C4.26648 8.71975 4.48658 8.50096 4.48658 7.84456C4.48658 7.18816 4.48658 6.53178 4.48658 5.87538C4.48658 3.03098 6.68763 0.624139 9.54902 0.842939C10.8697 0.842939 11.9702 0.842939 13.2909 0.842939C13.2909 2.15574 13.2909 3.46859 13.2909 5.00019C12.6306 5.00019 11.9702 5.00019 11.53 5.00019C10.6495 5.00019 9.76913 5.65656 9.54902 6.75056C9.54902 7.40696 9.54902 7.84454 9.54902 8.50094C9.54902 8.71974 9.98928 8.93856 10.2094 8.93856C11.0898 8.93856 12.1903 8.93856 13.0708 8.93856C13.0708 8.93856 13.0708 8.93856 13.2909 8.93856C13.2909 10.2514 13.2909 11.5641 13.2909 12.8769C12.1903 12.8769 11.3099 12.8769 10.4294 12.8769C9.76912 12.8769 9.54902 13.0958 9.54902 13.7522C9.54902 17.6906 9.54902 21.629 9.54902 25.5674C9.54902 25.5674 9.54902 25.7861 9.54902 26.2237Z" fill="url(#paint0_linear_125_5193)"/>
<defs>
<linearGradient id="paint0_linear_125_5193" x1="7.12786" y1="0.829102" x2="7.12786" y2="26.2237" gradientUnits="userSpaceOnUse">
<stop stop-color="#1B2B5E"/>
<stop offset="1" stop-color="#2C4B9B"/>
</linearGradient>
</defs>
</svg>
